<?xml version="1.0" encoding="UTF-8"?>
<svg version="1.1" xmlns="http://www.w3.org/2000/svg" width="80" height="80">
<path d="M0 0 C3.25 1.875 3.25 1.875 5 4 C5 4.66 5 5.32 5 6 C5.763125 6.0825 6.52625 6.165 7.3125 6.25 C10.62610231 7.17472623 11.25205159 8.09663877 13 11 C13.35644531 13.25830078 13.35644531 13.25830078 13.328125 15.6953125 C13.32296875 16.57574219 13.3178125 17.45617187 13.3125 18.36328125 C13.291875 19.27464844 13.27125 20.18601562 13.25 21.125 C13.24484375 22.04410156 13.2396875 22.96320312 13.234375 23.91015625 C13.15472274 30.69055451 13.15472274 30.69055451 12 33 C16.29 33.33 20.58 33.66 25 34 C25 45.88 25 57.76 25 70 C5.2 70 -14.6 70 -35 70 C-35 58.12 -35 46.24 -35 34 C-28.565 33.505 -28.565 33.505 -22 33 C-22.33 32.34 -22.66 31.68 -23 31 C-23.29219429 27.77780225 -23.27797429 24.54640858 -23.3125 21.3125 C-23.34150391 20.42626953 -23.37050781 19.54003906 -23.40039062 18.62695312 C-23.45918067 12.51731101 -22.59096112 8.98205417 -19 4 C-13.22364892 -0.69328525 -7.28319305 -1.05224602 0 0 Z " fill="#DEE8F0" transform="translate(45,2)"/>
<path d="M0 0 C3.25 1.875 3.25 1.875 5 4 C5 4.66 5 5.32 5 6 C5.763125 6.0825 6.52625 6.165 7.3125 6.25 C10.62568537 7.17460987 11.24919531 8.0994508 13 11 C13.37231445 13.24243164 13.37231445 13.24243164 13.36328125 15.66015625 C13.36263672 16.53607422 13.36199219 17.41199219 13.36132812 18.31445312 C13.34521484 19.22130859 13.32910156 20.12816406 13.3125 21.0625 C13.31572266 21.97322266 13.31894531 22.88394531 13.32226562 23.82226562 C13.26733262 30.59900107 13.26733262 30.59900107 11 34 C10.01 34 9.02 34 8 34 C7.97421875 32.96359375 7.9484375 31.9271875 7.921875 30.859375 C7.86558049 29.48954199 7.80823345 28.11975195 7.75 26.75 C7.73582031 26.06808594 7.72164062 25.38617187 7.70703125 24.68359375 C7.53447223 21.12887794 7.2454103 19.29786441 4.953125 16.515625 C4.30859375 16.01546875 3.6640625 15.5153125 3 15 C2.46632813 15.34933594 1.93265625 15.69867188 1.3828125 16.05859375 C-3.82460465 19.23890215 -7.92872236 20.59568553 -14.03125 20.859375 C-16.00249272 20.78418254 -16.00249272 20.78418254 -17 22 C-17.23427778 24.01594582 -17.41336124 26.038474 -17.5625 28.0625 C-17.64628906 29.16722656 -17.73007812 30.27195312 -17.81640625 31.41015625 C-17.87699219 32.26480469 -17.93757813 33.11945312 -18 34 C-19.9375 33.625 -19.9375 33.625 -22 33 C-23.79519543 29.40960913 -23.27028409 25.26672328 -23.3125 21.3125 C-23.34150391 20.42626953 -23.37050781 19.54003906 -23.40039062 18.62695312 C-23.45918067 12.51731101 -22.59096112 8.98205417 -19 4 C-13.22364892 -0.69328525 -7.28319305 -1.05224602 0 0 Z " fill="#A36F4C" transform="translate(45,2)"/>
<path d="M0 0 C3.51056197 2.84714869 4.89669347 4.2024736 5.48828125 8.76953125 C5.46005191 10.11816526 5.39559097 11.46613211 5.3125 12.8125 C5.209375 15.184375 5.10625 17.55625 5 20 C-3.58 20 -12.16 20 -21 20 C-21 8 -21 8 -19 6 C-16.93359375 5.76171875 -16.93359375 5.76171875 -14.4375 5.6875 C-8.7266177 5.25523526 -4.73122822 3.09701171 0 0 Z " fill="#F4CD84" transform="translate(48,16)"/>
<path d="M0 0 C3.25 1.875 3.25 1.875 5 4 C5 4.66 5 5.32 5 6 C5.763125 6.0825 6.52625 6.165 7.3125 6.25 C10.66899827 7.18669719 11.28335168 8.00699645 13 11 C13.3984375 14.12890625 13.3984375 14.12890625 13.375 17.5625 C13.38660156 19.26599609 13.38660156 19.26599609 13.3984375 21.00390625 C13 24 13 24 11.4765625 25.90234375 C10.98929688 26.26457031 10.50203125 26.62679688 10 27 C10.165 26.175 10.33 25.35 10.5 24.5 C11.16687905 19.83184662 11.62311314 15.30551863 10.375 10.6875 C8.36804827 8.22442288 5.84761872 7.33663736 3 6 C1.25 4.375 1.25 4.375 0 3 C-3.20178039 1.39910981 -6.51768987 1.6426734 -10 2 C-14.68788787 3.71288211 -17.25914806 5.83796557 -20 10 C-21.55885811 13.76724043 -21.1292006 17.99478151 -21 22 C-20.67 22.66 -20.34 23.32 -20 24 C-19.34 23.01 -18.68 22.02 -18 21 C-18 25.29 -18 29.58 -18 34 C-19.32 33.67 -20.64 33.34 -22 33 C-23.79519543 29.40960913 -23.27028409 25.26672328 -23.3125 21.3125 C-23.34150391 20.42626953 -23.37050781 19.54003906 -23.40039062 18.62695312 C-23.45918067 12.51731101 -22.59096112 8.98205417 -19 4 C-13.22364892 -0.69328525 -7.28319305 -1.05224602 0 0 Z " fill="#7B5134" transform="translate(45,2)"/>
<path d="M0 0 C0.66 0.66 1.32 1.32 2 2 C1.8125 5.5 1.8125 5.5 1 9 C-2.22143276 11.14762184 -3.2595467 11.561068 -7 11 C-9.2855347 8.87208838 -9.92303658 7.52591672 -10.375 4.4375 C-10 2 -10 2 -8.9375 0.125 C-5.82785011 -1.68060316 -3.38260527 -0.79952488 0 0 Z " fill="#7D8FA0" transform="translate(44,50)"/>
<path d="M0 0 C0.33 0 0.66 0 1 0 C1 2.64 1 5.28 1 8 C1.66 8 2.32 8 3 8 C3 7.34 3 6.68 3 6 C3.66 6 4.32 6 5 6 C5.25 11.625 5.25 11.625 3 15 C2.01 15 1.02 15 0 15 C0 10.05 0 5.1 0 0 Z " fill="#A07D4B" transform="translate(53,21)"/>
<path d="M0 0 C0.66 0 1.32 0 2 0 C4.43160605 3.36683915 5 4.73350364 5 9 C3.0625 8.625 3.0625 8.625 1 8 C-0.35439668 5.29120665 -0.06501451 2.99066732 0 0 Z " fill="#B09055" transform="translate(22,27)"/>
</svg>
