<?xml version="1.0" encoding="UTF-8"?>
<svg version="1.1" xmlns="http://www.w3.org/2000/svg" width="32" height="32">
<path d="M0 0 C0.98484375 -0.00128906 1.9696875 -0.00257812 2.984375 -0.00390625 C4.02078125 -0.00003906 5.0571875 0.00382813 6.125 0.0078125 C7.67960937 0.00201172 7.67960937 0.00201172 9.265625 -0.00390625 C10.25046875 -0.00261719 11.2353125 -0.00132813 12.25 0 C13.16007812 0.00112793 14.07015625 0.00225586 15.0078125 0.00341797 C17.125 0.1328125 17.125 0.1328125 18.125 1.1328125 C18.2241657 2.75538794 18.25579777 4.38221081 18.2578125 6.0078125 C18.25974609 7.48507812 18.25974609 7.48507812 18.26171875 8.9921875 C18.25785156 10.02859375 18.25398438 11.065 18.25 12.1328125 C18.25580078 13.68742187 18.25580078 13.68742187 18.26171875 15.2734375 C18.26042969 16.25828125 18.25914063 17.243125 18.2578125 18.2578125 C18.25668457 19.16789062 18.25555664 20.07796875 18.25439453 21.015625 C18.125 23.1328125 18.125 23.1328125 17.125 24.1328125 C15.50242456 24.2319782 13.87560169 24.26361027 12.25 24.265625 C11.26515625 24.26691406 10.2803125 24.26820312 9.265625 24.26953125 C8.22921875 24.26566406 7.1928125 24.26179688 6.125 24.2578125 C4.57039062 24.26361328 4.57039062 24.26361328 2.984375 24.26953125 C1.99953125 24.26824219 1.0146875 24.26695313 0 24.265625 C-0.91007813 24.26449707 -1.82015625 24.26336914 -2.7578125 24.26220703 C-4.875 24.1328125 -4.875 24.1328125 -5.875 23.1328125 C-5.9741657 21.51023706 -6.00579777 19.88341419 -6.0078125 18.2578125 C-6.00910156 17.27296875 -6.01039062 16.288125 -6.01171875 15.2734375 C-6.00785156 14.23703125 -6.00398437 13.200625 -6 12.1328125 C-6.00580078 10.57820312 -6.00580078 10.57820312 -6.01171875 8.9921875 C-6.01042969 8.00734375 -6.00914063 7.0225 -6.0078125 6.0078125 C-6.00668457 5.09773437 -6.00555664 4.18765625 -6.00439453 3.25 C-5.75735363 -0.79214854 -3.51772145 0.00435978 0 0 Z " fill="#03FF03" transform="translate(9.875,3.8671875)"/>
<path d="M0 0 C0.99 0.66 1.98 1.32 3 2 C3.226875 3.134375 3.45375 4.26875 3.6875 5.4375 C4.58268831 9.02354439 4.58268831 9.02354439 6.90234375 10.125 C8.9213436 10.86305267 10.91237835 11.49023192 13 12 C13 12.99 13 13.98 13 15 C11.2890625 15.734375 11.2890625 15.734375 9 16 C6.7109375 14.453125 6.7109375 14.453125 4.375 12.25 C3.59898438 11.53328125 2.82296875 10.8165625 2.0234375 10.078125 C-1.11247248 6.85746069 -2 5.60380822 -2 1 C-1.34 0.67 -0.68 0.34 0 0 Z " fill="#E9FFE9" transform="translate(10,8)"/>
</svg>
