<?xml version="1.0" encoding="UTF-8"?>
<svg version="1.1" xmlns="http://www.w3.org/2000/svg" width="32" height="32">
<path d="M0 0 C3.27593689 2.5452745 5.32676302 4.93301158 6.15625 8.98828125 C6.29617873 13.70213031 5.8558839 17.62940702 2.90625 21.42578125 C-0.4146601 24.52026566 -2.37273805 25.91493025 -6.94921875 26.05078125 C-12.83256183 25.73542618 -15.83183236 24.29375384 -19.84375 19.98828125 C-22.28732377 16.16355708 -22.0671983 12.56923986 -21.44921875 8.20703125 C-20.21983073 3.70191903 -17.51674716 1.05714055 -13.59375 -1.44921875 C-8.91871806 -2.40547528 -4.26301752 -2.33924055 0 0 Z " fill="#09BCD3" transform="translate(23.84375,4.01171875)"/>
<path d="M0 0 C4.12721653 1.82365381 6.17634619 3.87278347 8 8 C8.4430062 11.54404961 8.23046098 13.49298585 6.75 16.75 C4.95347654 19.05981588 3.70494754 19.97398542 1 21 C0.34 19.02 -0.32 17.04 -1 15 C0.32 14.34 1.64 13.68 3 13 C3 10.36 3 7.72 3 5 C-0.96 5 -4.92 5 -9 5 C-9 7.97 -9 10.94 -9 14 C-7.68 14.33 -6.36 14.66 -5 15 C-5 15.66 -5 16.32 -5 17 C-6.32 17.33 -7.64 17.66 -9 18 C-8.01 18.33 -7.02 18.66 -6 19 C-6 19.66 -6 20.32 -6 21 C-9.14158949 20.06601394 -10.7325148 19.33205059 -12.8125 16.75 C-14.21538638 13.50121048 -14.43851607 11.50812857 -14 8 C-11.22067254 1.70994311 -6.83146591 -0.85393324 0 0 Z " fill="#DEEEF0" transform="translate(19,5)"/>
<path d="M0 0 C3.96 0 7.92 0 12 0 C12.33 2.64 12.66 5.28 13 8 C11.68 8.99 10.36 9.98 9 11 C9.33 12.65 9.66 14.3 10 16 C5.25 17.125 5.25 17.125 3 16 C3 15.34 3 14.68 3 14 C1.68 13.67 0.36 13.34 -1 13 C-0.67 12.34 -0.34 11.68 0 11 C1.98 11.495 1.98 11.495 4 12 C4 11.34 4 10.68 4 10 C2.68 9.67 1.36 9.34 0 9 C0 6.03 0 3.06 0 0 Z " fill="#495D67" transform="translate(10,10)"/>
<path d="M0 0 C0.33 1.32 0.66 2.64 1 4 C1.99 4 2.98 4 4 4 C4.33 3.01 4.66 2.02 5 1 C5 2.65 5 4.3 5 6 C6.32 6.33 7.64 6.66 9 7 C9 7.66 9 8.32 9 9 C7.68 9.33 6.36 9.66 5 10 C5.99 10.33 6.98 10.66 8 11 C8 11.66 8 12.32 8 13 C4.85841051 12.06601394 3.2674852 11.33205059 1.1875 8.75 C-0.16280181 5.62298529 -0.23523553 3.3717092 0 0 Z " fill="#CDE3E7" transform="translate(5,13)"/>
<path d="M0 0 C0.33 0 0.66 0 1 0 C1.32405231 4.64474974 0.88473323 7.29105728 -2 11 C-4.1875 12.3125 -4.1875 12.3125 -6 13 C-6.66 11.02 -7.32 9.04 -8 7 C-3.375 4 -3.375 4 0 4 C0 2.68 0 1.36 0 0 Z " fill="#DAEFF2" transform="translate(26,13)"/>
<path d="M0 0 C1.65 0.33 3.3 0.66 5 1 C5.33 2.65 5.66 4.3 6 6 C1.25 7.125 1.25 7.125 -1 6 C-1 5.34 -1 4.68 -1 4 C-2.32 3.67 -3.64 3.34 -5 3 C-4.67 2.34 -4.34 1.68 -4 1 C-2.02 1.495 -2.02 1.495 0 2 C0 1.34 0 0.68 0 0 Z " fill="#5F737B" transform="translate(14,20)"/>
<path d="M0 0 C-0.33 2.64 -0.66 5.28 -1 8 C-1.99 8 -2.98 8 -4 8 C-4.1875 5.125 -4.1875 5.125 -4 2 C-1 0 -1 0 0 0 Z " fill="#FAFDFE" transform="translate(10,9)"/>
<path d="M0 0 C1.485 0.99 1.485 0.99 3 2 C3.1875 5.125 3.1875 5.125 3 8 C2.01 8 1.02 8 0 8 C0 5.36 0 2.72 0 0 Z " fill="#F7FBFB" transform="translate(23,9)"/>
</svg>
