<?xml version="1.0" encoding="UTF-8"?>
<svg version="1.1" xmlns="http://www.w3.org/2000/svg" width="32" height="32">
<path d="M0 0 C10.56 0 21.12 0 32 0 C32 7.92 32 15.84 32 24 C21.44 24 10.88 24 0 24 C0 16.08 0 8.16 0 0 Z " fill="#F28211" transform="translate(0,4)"/>
<path d="M0 0 C10.56 0 21.12 0 32 0 C31 5 31 5 28.015625 7.52734375 C26.77096007 8.34696885 25.5152035 9.14994924 24.25 9.9375 C23.62867187 10.36095703 23.00734375 10.78441406 22.3671875 11.22070312 C17.76353691 14.15868689 17.76353691 14.15868689 14.40625 13.4609375 C13.6121875 12.97882812 12.818125 12.49671875 12 12 C11.05640625 11.48824219 10.1128125 10.97648438 9.140625 10.44921875 C7.70976563 9.57716797 7.70976563 9.57716797 6.25 8.6875 C5.28578125 8.11386719 4.3215625 7.54023438 3.328125 6.94921875 C1 5 1 5 0 0 Z " fill="#FDD928" transform="translate(0,4)"/>
</svg>
