<?xml version="1.0" encoding="UTF-8"?>
<svg version="1.1" xmlns="http://www.w3.org/2000/svg" width="32" height="32">
<path d="M0 0 C1.13308594 -0.03738281 2.26617188 -0.07476562 3.43359375 -0.11328125 C6.5625 0.3125 6.5625 0.3125 8.9453125 1.93359375 C12.06262328 6.51920308 11.10538923 11.99615789 10.5625 17.3125 C8.98210273 22.05369182 6.88605076 24.77476369 2.5625 27.3125 C-1.90512034 28.51817943 -5.34785066 28.68256959 -9.75 27.1875 C-13.37191559 24.66058215 -15.82334978 22.58822103 -17.0078125 18.19921875 C-17.8203797 13.05584129 -17.50705337 9.71219317 -14.4375 5.3125 C-9.75782759 0.98380302 -6.27961977 0.1354288 0 0 Z " fill="#42A4F2" transform="translate(19.4375,1.6875)"/>
<path d="M0 0 C2.9375 0.875 2.9375 0.875 4.9375 3.875 C5.61664216 10.48120098 6.04886984 17.34591643 1.9375 22.875 C-1.67851705 26.81007738 -4.86855609 27.43254432 -9.9765625 27.89453125 C-12.0625 27.875 -12.0625 27.875 -15.0625 26.875 C-16.25 24.8125 -16.25 24.8125 -17.0625 22.875 C-15.7425 23.205 -14.4225 23.535 -13.0625 23.875 C-12.7325 22.885 -12.4025 21.895 -12.0625 20.875 C-11.4025 22.195 -10.7425 23.515 -10.0625 24.875 C-9.4025 24.875 -8.7425 24.875 -8.0625 24.875 C-6.42573743 22.9149719 -6.42573743 22.9149719 -5.0625 20.875 C-5.0625 21.865 -5.0625 22.855 -5.0625 23.875 C-3.7425 22.555 -2.4225 21.235 -1.0625 19.875 C-2.3825 19.545 -3.7025 19.215 -5.0625 18.875 C-3.4125 18.545 -1.7625 18.215 -0.0625 17.875 C0.2675 16.225 0.5975 14.575 0.9375 12.875 C0.0403125 12.7203125 0.0403125 12.7203125 -0.875 12.5625 C-3.48618447 11.74184202 -4.50568272 11.13238505 -6.0625 8.875 C-6.45954314 5.69865485 -6.56183741 3.73496999 -4.9375 0.9375 C-3.0625 -0.125 -3.0625 -0.125 0 0 Z " fill="#1978E4" transform="translate(25.0625,2.125)"/>
<path d="M0 0 C3.465 1.98 3.465 1.98 7 4 C7.56638908 8.81430721 5.82561627 11.20307814 3 15 C2.01 14.67 1.02 14.34 0 14 C-0.99 15.485 -0.99 15.485 -2 17 C-2.99 16.67 -3.98 16.34 -5 16 C-5.33 15.34 -5.66 14.68 -6 14 C-7.32 14.33 -8.64 14.66 -10 15 C-9.67 15.66 -9.34 16.32 -9 17 C-12.35620271 15.61122646 -14.07298728 14.08322035 -16 11 C-16 10.34 -16 9.68 -16 9 C-15.34 9 -14.68 9 -14 9 C-14 6.69 -14 4.38 -14 2 C-13.67 2 -13.34 2 -13 2 C-12.67 3.98 -12.34 5.96 -12 8 C-11.01 8 -10.02 8 -9 8 C-8.34 6.68 -7.68 5.36 -7 4 C-7 5.65 -7 7.3 -7 9 C-4.69 9 -2.38 9 0 9 C0 6.03 0 3.06 0 0 Z " fill="#3094EF" transform="translate(19,11)"/>
<path d="M0 0 C2 1 2 1 3 3 C2.67 3.66 2.34 4.32 2 5 C1.7724985 6.87056791 1.59037189 8.74685958 1.4375 10.625 C1.35371094 11.62789062 1.26992187 12.63078125 1.18359375 13.6640625 C1.12300781 14.43492188 1.06242188 15.20578125 1 16 C-2.38317487 16.97591583 -4.5657338 16.85856655 -8 16 C-7.83594462 9.28864336 -6.85033511 5.73203426 -2 1 C-1.34 0.67 -0.68 0.34 0 0 Z " fill="#4CAFF7" transform="translate(10,3)"/>
<path d="M0 0 C2.9375 0.875 2.9375 0.875 4.9375 3.875 C4.76281656 7.28132707 4.16521261 8.61968586 1.875 11.1875 C0.9159375 12.0228125 0.9159375 12.0228125 -0.0625 12.875 C-2.53050047 11.72326645 -4.11033565 10.82716435 -6.0625 8.875 C-6.39552312 5.7445827 -6.53921956 3.69601702 -4.9375 0.9375 C-3.0625 -0.125 -3.0625 -0.125 0 0 Z " fill="#C84F27" transform="translate(25.0625,2.125)"/>
<path d="M0 0 C3.465 1.98 3.465 1.98 7 4 C7.042721 5.66611905 7.04063832 7.33382885 7 9 C6.67 9.33 6.34 9.66 6 10 C4.35 10 2.7 10 1 10 C0.67 6.7 0.34 3.4 0 0 Z M-6 10 C1.42857143 9.85714286 1.42857143 9.85714286 5 11 C4.34 12.32 3.68 13.64 3 15 C2.34 15 1.68 15 1 15 C0.67 14.01 0.34 13.02 0 12 C-2.97 11.505 -2.97 11.505 -6 11 C-6 10.67 -6 10.34 -6 10 Z " fill="#2F8CEC" transform="translate(19,11)"/>
<path d="M0 0 C2 1 2 1 3 3 C2.0625 5.125 2.0625 5.125 1 7 C-1.31 7 -3.62 7 -6 7 C-4.60667426 3.63279613 -3.0210714 2.0140476 0 0 Z " fill="#5DC0F8" transform="translate(10,3)"/>
<path d="M0 0 C0.33 0 0.66 0 1 0 C1 1.65 1 3.3 1 5 C2.98 5.495 2.98 5.495 5 6 C3.35 6 1.7 6 0 6 C0 4.02 0 2.04 0 0 Z M-7 6 C0.42857143 5.85714286 0.42857143 5.85714286 4 7 C3.34 8.32 2.68 9.64 2 11 C1.34 11 0.68 11 0 11 C-0.33 10.01 -0.66 9.02 -1 8 C-3.97 7.505 -3.97 7.505 -7 7 C-7 6.67 -7 6.34 -7 6 Z " fill="#2285EC" transform="translate(20,15)"/>
<path d="M0 0 C1.98 0 3.96 0 6 0 C5.67 1.65 5.34 3.3 5 5 C3.68 5 2.36 5 1 5 C0.67 3.35 0.34 1.7 0 0 Z " fill="#2B8FF7" transform="translate(13,22)"/>
<path d="M0 0 C0.99 0.33 1.98 0.66 3 1 C3 2.65 3 4.3 3 6 C1.35 6 -0.3 6 -2 6 C-1.125 1.125 -1.125 1.125 0 0 Z " fill="#50B1F9" transform="translate(15,4)"/>
<path d="M0 0 C0.66 0 1.32 0 2 0 C2 1.98 2 3.96 2 6 C1.01 6.33 0.02 6.66 -1 7 C-1.04254356 5.00045254 -1.04080783 2.99958364 -1 1 C-0.67 0.67 -0.34 0.34 0 0 Z " fill="#1F83F6" transform="translate(28,13)"/>
</svg>
