<?xml version="1.0" standalone="no"?>
<!DOCTYPE svg PUBLIC "-//W3C//DTD SVG 20010904//EN"
 "http://www.w3.org/TR/2001/REC-SVG-20010904/DTD/svg10.dtd">
<svg version="1.0" xmlns="http://www.w3.org/2000/svg"
 width="400.000000pt" height="400.000000pt" viewBox="0 0 400.000000 400.000000"
 preserveAspectRatio="xMidYMid meet">
<metadata>
Created by potrace 1.16, written by Peter Selinger 2001-2019
</metadata>
<g transform="translate(0.000000,400.000000) scale(0.100000,-0.100000)"
fill="#000000" stroke="none">
<path d="M3800 3990 c0 -6 6 -10 13 -10 9 0 9 -2 0 -8 -8 -5 -9 -12 -2 -22 8
-13 10 -13 19 0 8 13 10 12 10 -3 0 -13 -6 -17 -22 -15 -18 2 -24 -3 -26 -21
-2 -13 -11 -31 -19 -40 -14 -13 -14 -16 3 -22 16 -7 15 -8 -6 -9 -23 -1 -23
-2 -6 -11 10 -6 33 -9 52 -6 20 4 34 2 34 -5 0 -6 -18 -9 -45 -6 -25 2 -45 0
-45 -4 0 -4 13 -20 28 -36 26 -26 31 -28 48 -15 10 8 27 12 36 10 11 -3 15 0
11 9 -3 8 -1 14 5 14 20 0 -1 50 -24 56 -13 3 -21 10 -18 16 3 5 11 5 19 -2
10 -9 13 -7 10 7 -1 10 -8 17 -15 15 -6 -1 -9 2 -6 7 5 8 27 8 46 1 3 -1 8 -2
13 -1 4 0 7 -4 7 -10 0 -6 -6 -9 -13 -6 -8 3 -14 0 -14 -7 0 -6 9 -12 19 -12
15 0 18 7 16 38 -1 20 -5 35 -9 32 -4 -2 -10 0 -14 6 -8 13 16 13 49 0 29 -11
36 -54 11 -64 -8 -3 -15 -11 -15 -17 0 -7 3 -9 6 -6 4 3 14 2 23 -3 14 -7 17
-2 19 40 1 32 -3 52 -13 60 -19 16 -19 37 1 48 10 5 -21 9 -85 10 -60 1 -101
-3 -101 -8z"/>
<path d="M1998 3653 c-92 -227 -234 -577 -248 -613 -10 -25 -40 -101 -68 -170
-27 -69 -84 -210 -126 -315 -41 -104 -82 -203 -90 -220 -8 -16 -31 -73 -51
-125 -74 -190 -132 -313 -145 -305 -6 4 -7 -1 -3 -11 5 -13 3 -15 -7 -9 -8 5
-11 4 -7 -3 14 -22 -100 -137 -173 -175 -82 -43 -161 -51 -255 -27 -43 11 -98
31 -122 45 -50 27 -67 16 -39 -27 35 -53 60 -187 59 -313 -1 -113 -9 -159 -48
-281 -5 -17 -2 -22 19 -26 14 -3 23 -1 20 3 -3 5 21 9 53 9 74 0 128 -25 196
-88 161 -149 356 -267 569 -342 20 -8 34 -18 31 -23 -4 -6 -1 -7 6 -3 11 7
169 -31 181 -44 3 -3 25 -6 50 -8 53 -3 61 -10 53 -40 -5 -19 -8 -21 -22 -10
-14 12 -14 11 -2 -5 16 -21 31 -22 31 -3 0 8 8 17 17 20 15 6 15 8 3 16 -13 8
-12 10 3 10 10 0 20 -7 23 -15 4 -8 10 -15 16 -15 5 0 6 5 2 12 -5 8 -2 9 9 5
13 -5 17 -1 16 21 0 24 -1 25 -9 7 -7 -17 -9 -17 -9 -2 -1 11 -9 17 -26 17
-17 0 -25 6 -25 18 0 14 -2 14 -9 3 -8 -12 -25 -9 -103 18 -321 113 -487 282
-488 498 0 96 50 267 72 245 8 -8 17 -8 30 -1 24 13 23 36 -2 44 -11 3 -20 9
-20 13 0 4 19 57 41 117 22 61 46 128 54 150 7 22 27 78 45 125 17 47 42 114
55 150 13 36 35 97 50 135 14 39 32 88 40 110 7 22 27 78 45 125 17 47 53 146
80 220 27 74 62 171 79 215 16 44 48 133 71 197 24 65 46 115 51 113 4 -3 13
-22 20 -43 6 -20 20 -55 30 -77 49 -111 90 -212 94 -235 0 -3 9 -20 19 -38 9
-19 18 -47 18 -62 1 -16 4 -27 8 -25 4 3 24 -33 44 -80 51 -118 51 -119 38
-111 -8 5 -10 2 -6 -8 3 -9 10 -16 14 -16 4 0 26 -42 48 -92 76 -177 152 -358
152 -366 0 -4 7 -20 16 -37 9 -16 22 -47 30 -68 7 -20 20 -52 28 -70 47 -104
215 -518 221 -547 4 -19 7 -71 7 -116 0 -113 -38 -190 -137 -280 -69 -64 -85
-74 -85 -53 0 5 4 8 8 5 5 -3 9 1 9 7 0 9 -10 12 -29 9 -16 -2 -28 -10 -28
-19 0 -8 -4 -11 -10 -8 -5 3 -10 1 -10 -5 0 -7 7 -10 15 -6 8 3 15 1 15 -3 0
-14 -65 -51 -89 -51 -11 0 -21 -5 -21 -11 0 -6 -7 -9 -15 -5 -8 3 -15 1 -15
-5 0 -6 -5 -7 -12 -3 -7 5 -5 12 8 22 18 13 17 14 -8 8 -26 -6 -33 0 -29 27 0
4 -6 7 -14 7 -8 0 -15 7 -15 15 0 8 -4 15 -8 15 -5 0 -9 -7 -9 -15 0 -8 4 -15
9 -15 4 0 8 -7 8 -15 0 -8 -5 -15 -11 -15 -7 0 -9 -13 -5 -38 5 -29 4 -33 -4
-19 -6 9 -18 17 -26 17 -9 0 -12 5 -8 12 4 7 3 8 -5 4 -14 -9 -5 -26 15 -26
27 0 9 -24 -26 -34 -25 -7 -35 -7 -38 2 -4 14 -32 16 -32 2 0 -5 6 -10 13 -10
22 0 -17 -20 -40 -20 -14 0 -23 -6 -23 -15 0 -18 29 -19 127 -1 43 8 78 9 87
4 12 -6 18 -4 22 7 4 9 13 14 21 11 9 -4 11 -2 7 6 -5 8 1 9 20 4 17 -4 25 -3
22 3 -3 5 23 19 59 30 78 25 72 25 78 1 3 -11 1 -20 -4 -20 -5 0 -9 -7 -9 -15
0 -8 4 -15 9 -15 5 0 18 -3 28 -6 16 -5 17 -5 1 6 -18 11 -14 38 6 53 8 5 6
11 -4 18 -12 8 -12 12 -2 16 90 36 328 167 352 193 3 3 25 21 50 40 25 18 68
55 95 80 28 25 72 57 98 69 42 21 59 23 123 18 41 -3 74 -2 74 2 0 5 -9 37
-20 72 -54 167 -45 373 22 515 31 66 22 76 -48 53 -86 -28 -223 -26 -309 5
-166 60 -260 175 -369 452 -20 50 -36 94 -36 97 0 4 -12 32 -26 63 -21 46 -23
58 -12 65 10 7 10 9 -3 9 -13 0 -49 62 -49 84 0 4 -8 26 -19 49 -10 23 -35 85
-56 137 -20 52 -43 109 -50 125 -7 17 -29 73 -50 125 -20 52 -43 111 -52 130
-32 74 -62 160 -55 160 4 0 1 4 -7 9 -13 8 -13 12 0 27 9 11 9 15 1 10 -8 -5
-21 13 -42 58 -17 35 -30 67 -30 71 0 4 -11 33 -24 64 -14 31 -39 93 -57 139
-17 45 -37 82 -44 82 -6 0 -19 -17 -27 -37z m-156 -773 c-15 -27 -31 -48 -36
-47 -6 1 -12 -6 -14 -15 -2 -10 2 -18 8 -18 6 0 8 5 5 10 -3 6 -2 10 4 10 20
0 21 -19 2 -37 -10 -10 -22 -37 -26 -60 -4 -27 -12 -43 -21 -43 -8 0 -11 -6
-8 -15 5 -11 2 -13 -10 -9 -9 3 -13 10 -10 15 3 5 -1 9 -9 9 -8 0 -17 -9 -20
-20 -3 -12 -1 -20 6 -19 34 4 37 -1 30 -43 -3 -24 -12 -49 -20 -56 -7 -8 -11
-17 -8 -22 3 -5 0 -21 -7 -37 -6 -15 -12 -30 -13 -33 -10 -44 -17 -60 -25 -60
-6 0 -10 -7 -10 -17 0 -27 -51 -120 -67 -120 -7 0 -12 6 -9 13 3 8 1 16 -4 19
-4 3 -10 0 -12 -7 -6 -17 -38 14 -38 36 0 9 -4 16 -10 16 -5 0 -6 -7 -3 -17 4
-10 2 -14 -4 -10 -6 4 -13 0 -17 -8 -3 -8 -1 -15 4 -15 6 0 9 -6 8 -12 -2 -8
6 -12 19 -11 16 2 21 -2 17 -11 -3 -8 -14 -13 -24 -11 -20 4 -34 -20 -24 -37
5 -7 11 -6 18 3 18 23 35 21 31 -3 -6 -27 -26 -40 -41 -27 -8 7 -14 6 -19 -1
-3 -5 -14 -10 -24 -10 -14 0 -17 7 -16 35 3 35 19 65 37 65 5 0 6 -5 2 -12 -4
-7 -3 -8 4 -4 16 9 3 36 -14 29 -9 -3 -14 1 -14 13 0 16 2 16 10 4 7 -12 11
-10 18 10 5 14 6 26 2 28 -8 3 10 61 33 104 8 15 17 25 21 21 4 -4 4 0 1 9 -4
9 0 29 9 45 8 15 15 22 16 16 0 -7 5 -13 11 -13 5 0 8 4 4 9 -3 6 4 9 15 8 11
-1 20 -6 20 -12 0 -5 7 -2 14 8 8 10 13 32 12 50 -2 27 -6 32 -24 30 -16 -2
-22 3 -22 17 0 10 5 22 10 25 6 3 10 0 10 -7 0 -7 9 -19 21 -26 11 -7 18 -19
15 -27 -8 -23 10 -26 28 -6 16 18 16 19 -1 17 -12 -1 -18 6 -17 20 0 13 -6 21
-15 20 -10 -1 -17 9 -20 24 -3 24 -3 25 17 7 14 -13 20 -14 18 -5 -3 21 -17
39 -26 33 -4 -3 -6 4 -3 15 3 11 9 20 14 20 5 0 6 -8 3 -17 -5 -15 -4 -15 6 1
10 14 9 20 -1 27 -12 8 -12 11 1 19 8 5 11 10 6 10 -5 0 -1 10 10 22 10 12 13
18 7 14 -9 -5 -11 -2 -7 9 4 9 12 14 19 11 9 -3 11 2 7 17 -5 18 -3 20 9 10
14 -11 15 -38 5 -108 -6 -45 4 -62 21 -34 14 24 14 24 10 2 -3 -13 -1 -23 4
-23 5 0 9 9 9 21 0 11 5 17 10 14 6 -3 10 3 10 14 0 11 -4 23 -10 26 -15 9
-12 44 6 62 8 9 13 22 10 29 -3 8 -1 14 4 14 6 0 10 11 10 24 0 24 9 29 52 33
15 1 13 -5 -10 -47z m646 -657 c-13 -16 -13 -21 -1 -43 14 -23 14 -23 10 -3
-4 20 -2 21 14 12 10 -5 19 -12 19 -15 0 -3 -4 -3 -8 0 -5 3 -9 0 -10 -7 0 -7
-3 -23 -7 -37 -4 -20 -2 -18 12 8 19 37 43 43 37 10 l-5 -23 10 23 c6 12 16
22 23 22 9 0 9 -3 -2 -10 -12 -8 -10 -10 10 -11 22 -2 23 -2 3 -6 -12 -2 -24
-10 -27 -18 -3 -9 0 -12 10 -8 8 3 14 -1 14 -10 0 -26 -30 -29 -40 -4 -7 18
-9 19 -9 4 -1 -10 -5 -16 -9 -13 -5 3 -9 -2 -9 -10 0 -10 4 -11 11 -4 7 7 14
3 23 -12 11 -20 12 -20 13 -4 0 12 5 16 15 12 9 -3 15 0 15 9 0 8 4 15 10 15
5 0 7 -7 4 -15 -5 -11 -2 -13 10 -9 19 7 22 -21 4 -33 -7 -4 -14 -17 -16 -28
-8 -54 -8 -71 2 -77 7 -5 6 -11 -4 -20 -8 -7 -11 -9 -7 -4 4 5 2 15 -4 23 -6
7 -8 13 -3 13 5 0 2 5 -6 10 -8 5 -16 14 -16 20 -3 20 -4 21 -14 15 -8 -5 -7
-12 2 -22 6 -8 13 -22 14 -30 2 -11 -1 -12 -12 -2 -11 9 -14 9 -14 0 0 -7 -5
-9 -12 -5 -8 5 -9 2 -5 -10 4 -10 1 -19 -9 -23 -9 -3 -11 -9 -6 -12 6 -3 3
-12 -6 -20 -14 -13 -15 -11 -9 17 5 24 3 32 -8 32 -19 0 -37 34 -28 56 4 12 3
15 -5 10 -7 -4 -12 -2 -12 4 0 8 -31 83 -48 114 -3 5 0 6 6 2 16 -10 15 3 -2
36 -12 23 -12 26 0 21 10 -4 12 0 8 11 -3 9 -2 16 4 16 13 0 24 -44 12 -48
-19 -7 -10 -20 10 -15 11 3 20 0 20 -6 0 -6 7 -11 15 -11 8 0 15 9 15 20 0 11
-4 20 -8 20 -5 0 -13 16 -19 35 -9 29 -9 37 5 45 27 15 36 12 20 -7z m-1007
-105 c-25 -25 -32 -38 -29 -60 4 -21 1 -27 -9 -24 -14 6 -14 5 -18 -31 -3 -29
25 -31 32 -2 5 16 8 18 15 7 7 -9 8 -7 3 7 -3 11 -9 34 -12 50 -5 29 -5 29 12
10 9 -11 14 -14 10 -7 -3 6 -1 12 4 12 6 0 11 -8 12 -17 0 -15 2 -15 8 2 11
26 5 36 -16 28 -11 -4 -14 -3 -9 5 4 7 18 10 32 8 21 -4 24 -1 24 22 -1 26 -1
26 -15 8 -16 -21 -21 -11 -7 12 10 15 42 5 42 -13 0 -25 -22 -75 -31 -69 -5 3
-9 0 -9 -5 0 -6 6 -11 13 -12 10 0 10 -2 0 -6 -7 -2 -13 -9 -13 -14 0 -6 5 -7
11 -4 5 4 3 -10 -5 -30 -9 -21 -16 -39 -16 -42 0 -2 -6 -1 -12 3 -10 6 -10 4
0 -8 9 -11 9 -17 2 -20 -6 -2 -12 -18 -14 -36 -1 -18 -8 -38 -14 -44 -7 -7
-12 -20 -12 -30 0 -10 -4 -18 -10 -18 -5 0 -8 -6 -6 -12 1 -7 1 -10 -1 -5 -12
20 -20 2 -20 -44 0 -33 -5 -54 -14 -60 -8 -5 -11 -9 -6 -9 4 0 1 -10 -8 -23
-8 -13 -13 -26 -9 -29 3 -3 0 -9 -7 -14 -8 -4 -10 -3 -5 4 4 7 1 12 -9 12 -9
0 -13 -4 -10 -10 8 -13 -7 -13 -23 0 -9 7 -9 7 -2 -2 7 -8 3 -19 -13 -36 -15
-16 -17 -23 -7 -20 8 2 14 -3 12 -9 -1 -7 3 -13 8 -13 14 0 4 -71 -12 -81 -7
-4 -9 -11 -5 -15 4 -4 2 -13 -4 -20 -6 -7 -11 -27 -11 -44 -1 -18 -7 -34 -14
-37 -7 -2 -11 -10 -8 -16 2 -7 -4 -29 -15 -49 -10 -21 -14 -35 -7 -31 6 3 6 0
-1 -7 -11 -12 -15 -11 -26 5 -12 15 -15 16 -22 4 -5 -8 -5 -11 0 -7 13 12 37
-44 30 -69 -3 -13 -12 -23 -20 -23 -8 0 -15 -3 -16 -7 0 -5 -2 -17 -4 -28 -4
-18 -2 -18 13 3 18 23 32 21 32 -6 0 -8 -6 -12 -14 -9 -8 3 -20 -1 -26 -9 -9
-10 -9 -14 -1 -14 6 0 11 -8 11 -17 0 -14 -4 -12 -17 7 -10 14 -18 28 -18 32
0 3 -3 9 -6 12 -10 10 -4 -79 7 -97 10 -17 11 -17 30 0 11 10 25 29 31 43 10
23 11 21 11 -23 l-1 -49 -41 6 c-22 3 -42 5 -44 5 -2 1 0 6 3 11 7 11 -8 14
-19 3 -4 -4 3 -16 16 -26 13 -10 17 -16 11 -12 -8 4 -13 -1 -14 -12 0 -14 -2
-13 -10 5 -5 13 -14 20 -20 17 -6 -4 -13 2 -16 14 -6 22 -23 29 -23 10 0 -8
-5 -8 -15 1 -8 7 -15 11 -16 9 -6 -31 -5 -40 7 -50 12 -10 13 -9 8 5 -4 12 -2
15 9 10 8 -3 14 -13 13 -22 -3 -21 -41 -23 -41 -2 -1 8 -6 14 -13 13 -7 -2
-12 2 -12 7 0 6 5 10 10 10 7 0 7 6 0 20 -12 23 -35 27 -27 5 4 -8 1 -17 -5
-21 -7 -4 -8 -3 -4 4 4 7 1 12 -6 12 -7 0 -22 13 -33 29 -11 17 -21 28 -24 26
-2 -3 -16 3 -31 12 -18 10 -27 24 -26 39 0 12 5 20 10 16 5 -3 6 9 3 27 -4 20
-3 30 3 26 19 -12 10 4 -21 34 l-31 31 32 -2 c17 -1 34 -6 36 -10 3 -5 9 -6
14 -3 15 9 24 -18 9 -29 -16 -13 -23 -36 -10 -36 5 0 11 7 15 15 3 8 11 15 18
15 9 0 8 -3 -2 -10 -8 -5 -10 -10 -5 -10 6 -1 -2 -8 -17 -16 -31 -16 -33 -22
-17 -58 12 -25 39 -43 39 -26 0 6 7 10 16 10 10 0 14 6 10 15 -3 8 -3 15 0 15
3 0 14 -20 25 -45 25 -56 30 -59 52 -29 10 13 14 24 9 24 -6 0 -12 -7 -16 -15
-11 -29 -25 -16 -16 16 8 25 7 29 -5 19 -8 -7 -15 -7 -19 -1 -9 14 -3 71 6 65
4 -3 8 1 8 9 0 7 -7 14 -15 14 -8 0 -15 -6 -15 -13 0 -16 -40 -45 -52 -38 -4
3 -8 0 -8 -5 0 -6 5 -11 11 -11 5 0 7 -5 4 -10 -4 -6 -11 -8 -16 -5 -13 9 -7
54 9 60 8 3 10 0 6 -6 -4 -7 1 -9 12 -7 12 2 19 12 18 25 0 15 5 20 17 18 19
-4 33 20 30 49 -2 11 2 16 8 11 6 -3 9 -10 7 -14 -3 -4 -1 -13 5 -21 7 -13 9
-13 9 0 0 8 -5 32 -10 52 -10 35 -13 37 -51 36 -28 0 -42 -6 -50 -19 -6 -13
-6 -19 1 -19 5 0 10 -4 10 -10 0 -17 -14 -11 -28 11 -8 12 -9 18 -4 15 5 -3
12 3 15 13 4 18 3 18 -23 3 -16 -9 -26 -20 -24 -24 3 -5 1 -8 -5 -8 -5 0 -13
5 -17 11 -4 8 -9 7 -15 -2 -7 -11 -9 -11 -9 -1 0 7 -4 11 -9 7 -5 -3 -12 -1
-16 5 -3 5 0 10 7 10 9 0 9 3 -2 10 -23 15 -28 12 -22 -15 2 -15 0 -25 -7 -25
-7 0 -9 4 -6 10 4 6 -1 7 -10 3 -15 -5 -15 -3 -3 18 7 13 20 30 28 37 13 11
12 12 -6 3 -12 -6 -25 -7 -29 -3 -4 4 -4 -4 0 -17 6 -19 4 -23 -8 -18 -12 4
-14 2 -10 -11 10 -26 34 -40 57 -34 18 5 19 3 8 -10 -9 -11 -10 -18 -2 -23 13
-8 13 -62 0 -70 -9 -6 -14 7 -11 27 0 4 -6 5 -14 2 -8 -4 -15 -1 -15 5 0 10
14 15 33 12 10 -1 9 17 -2 24 -12 7 -41 -22 -41 -41 0 -8 -4 -14 -10 -14 -5 0
-10 4 -10 9 0 6 5 13 10 16 15 9 12 25 -5 25 -8 0 -15 -5 -15 -11 0 -5 -4 -8
-8 -5 -5 3 -3 42 5 88 7 46 14 101 14 123 0 28 2 34 7 21 8 -17 9 -16 25 8 10
14 23 26 30 26 7 0 8 -3 2 -8 -11 -8 -16 -42 -6 -42 4 0 12 14 18 30 13 35 4
75 -17 75 -8 0 -14 7 -12 17 1 9 -3 20 -9 24 -8 4 -9 3 -5 -4 9 -14 -4 -15
-24 -2 -10 6 -11 10 -2 10 6 0 12 5 12 11 0 8 -5 8 -15 -1 -12 -10 -13 -16 -4
-26 9 -11 8 -14 -3 -14 -9 0 -18 13 -21 33 -4 17 -13 53 -21 78 l-14 45 29 -4
c16 -2 35 -12 42 -21 9 -13 26 -16 70 -15 31 1 60 -3 63 -7 3 -5 0 -9 -5 -9
-19 0 -12 -20 7 -21 15 0 15 -1 -1 -8 -18 -7 -18 -8 -1 -21 15 -13 16 -13 9
-1 -6 11 -4 13 8 8 14 -5 15 -2 7 18 -5 14 -7 26 -5 26 3 1 9 2 14 3 5 0 13 4
17 9 4 4 16 7 26 7 14 0 18 -5 14 -17 -3 -10 -1 -25 4 -33 5 -8 10 -11 10 -7
0 5 5 5 11 1 8 -4 7 -9 -2 -15 -7 -4 -10 -12 -5 -16 4 -4 14 1 22 11 11 15 16
17 28 7 12 -10 14 -9 9 8 -4 16 -9 18 -22 12 -24 -13 -51 10 -44 38 3 13 11
20 19 17 8 -3 14 -1 14 5 0 6 4 8 10 4 5 -3 7 -12 4 -19 -3 -8 -1 -17 5 -21 6
-3 11 -1 11 4 0 6 5 11 11 11 6 0 8 -9 4 -20 -8 -26 4 -68 15 -50 5 9 9 8 13
-3 4 -11 0 -15 -14 -12 -11 2 -22 -2 -26 -10 -3 -8 -9 -13 -13 -10 -5 3 -11 1
-14 -4 -7 -11 32 -26 41 -17 4 3 1 6 -5 6 -6 0 -9 7 -6 15 9 21 24 8 24 -20 0
-18 -4 -23 -15 -19 -8 4 -15 1 -15 -5 0 -6 6 -11 13 -12 7 0 6 -3 -3 -6 -20
-8 -40 -29 -34 -36 10 -10 34 5 28 17 -3 6 1 4 8 -5 16 -20 36 -4 30 24 -2 10
7 26 20 37 13 11 16 18 8 15 -12 -4 -15 3 -14 36 1 41 -21 103 -34 95 -4 -2
-13 2 -20 10 -11 12 -9 14 9 14 12 0 28 -8 36 -17 14 -17 14 -17 9 0 -7 22 10
22 23 0 5 -10 5 -26 1 -39 -7 -18 -5 -22 8 -19 11 1 16 10 14 22 -4 28 28 40
45 17 7 -10 13 -14 13 -8 0 5 5 2 10 -6 5 -8 10 -10 10 -4 0 7 8 11 18 10 25
-2 22 30 -7 87 -24 47 -24 48 -6 65 18 16 18 16 6 -1 -8 -9 -11 -21 -7 -24 4
-4 11 -1 16 7 6 9 10 10 10 3 0 -6 -4 -14 -10 -18 -5 -3 -7 -12 -4 -19 4 -11
10 -11 29 -2 25 12 39 42 24 52 -5 3 -9 -5 -10 -18 0 -13 -3 -17 -6 -11 -2 7
-4 15 -3 18 0 3 -6 13 -15 21 -19 20 -19 48 0 64 10 9 15 9 15 1 0 -6 -6 -11
-12 -12 -10 0 -10 -2 0 -6 6 -2 12 -9 12 -14 0 -6 -4 -7 -10 -4 -5 3 -10 1
-10 -4 0 -10 13 -15 25 -8 10 5 32 -38 27 -53 -5 -12 -3 -12 11 2 18 17 23 33
8 24 -4 -3 -8 14 -8 37 0 23 2 34 4 25 4 -14 9 -15 29 -8 17 7 23 7 19 0 -3
-6 -13 -10 -21 -10 -8 0 -14 -9 -14 -20 0 -11 4 -20 9 -20 4 0 8 -17 7 -37 -1
-29 -6 -38 -19 -37 -9 1 -14 -2 -11 -7 3 -5 0 -9 -6 -9 -6 0 -9 -4 -5 -9 8
-14 41 -9 43 6 1 7 3 20 4 28 1 8 5 12 10 9 5 -3 6 -10 3 -15 -4 -5 -2 -9 3
-9 18 0 21 13 7 34 -8 11 -15 25 -15 31 1 5 7 -1 14 -14 l14 -24 0 26 c0 16
-6 27 -14 27 -16 0 -16 2 -8 24 5 13 10 13 27 5 21 -11 21 -11 -1 10 -12 12
-20 26 -17 30 2 5 -3 8 -13 7 -13 -1 -17 6 -15 33 1 25 -1 31 -9 20 -8 -11
-11 -11 -15 -1 -4 10 -9 9 -24 -4 -11 -10 -19 -12 -19 -6 0 7 5 12 11 12 6 0
9 7 5 15 -3 8 2 18 10 23 9 5 16 13 16 18 1 18 20 59 30 65 7 4 12 22 13 40 1
18 7 35 14 37 6 2 19 11 28 20 15 16 16 15 9 -11 -6 -24 -5 -26 7 -16 8 8 12
21 9 31 -4 18 22 27 31 11 2 -5 3 -3 1 4 -4 17 8 25 20 13 7 -7 -1 -20 -23
-42z m1143 -253 c-4 -8 -1 -15 5 -15 6 0 11 5 11 10 0 6 10 10 23 9 21 0 21
-1 2 -9 -11 -5 -16 -9 -11 -9 5 -1 3 -7 -3 -15 -13 -15 1 -32 18 -21 5 3 12 1
15 -4 8 -13 -20 -21 -31 -10 -7 7 -12 5 -16 -5 -4 -11 -1 -13 11 -10 15 5 15
4 -1 -9 -19 -16 -48 -17 -46 -1 0 5 5 8 9 7 4 -1 10 3 13 11 4 10 -2 10 -29 2
-19 -6 -34 -18 -34 -26 0 -13 1 -13 10 0 9 13 14 8 11 -12 0 -3 7 -5 17 -3 9
1 25 -5 35 -13 15 -14 18 -14 15 -2 -2 9 3 14 12 11 8 -1 25 -4 37 -5 23 -1
21 -16 -3 -16 -8 0 -13 -4 -9 -10 3 -5 13 -6 22 -3 10 4 14 2 10 -4 -3 -5 0
-10 8 -10 8 0 12 4 9 9 -3 4 1 8 8 8 9 0 9 3 -2 10 -10 6 -11 10 -2 10 19 0
14 30 -5 30 -14 1 -12 6 11 24 16 13 25 29 22 35 -10 16 5 13 25 -5 10 -9 15
-22 13 -29 -7 -16 33 -58 41 -45 9 15 35 12 35 -3 0 -8 -9 -22 -19 -31 -11
-10 -18 -28 -16 -42 3 -28 -10 -40 -28 -26 -20 16 -95 13 -93 -3 3 -22 16 -31
16 -12 0 10 4 17 10 17 5 0 7 -6 4 -14 -3 -8 1 -13 13 -12 10 0 19 -3 20 -9 2
-5 -6 -10 -17 -10 -11 0 -19 -4 -19 -9 0 -5 -5 -12 -12 -16 -9 -6 -6 -11 8
-21 13 -7 18 -19 16 -30 -3 -11 1 -21 10 -25 12 -4 13 -12 7 -35 -5 -17 -5
-31 1 -34 15 -10 10 -25 -5 -19 -11 4 -13 0 -10 -18 l5 -23 -13 23 c-8 12 -17
19 -21 16 -4 -4 -7 -3 -7 3 0 5 -12 15 -27 22 -16 7 -23 15 -16 19 6 4 13 17
17 30 4 12 12 22 17 22 6 0 7 5 4 10 -3 6 2 10 11 10 13 0 15 3 7 11 -6 6 -21
9 -34 7 -34 -5 -49 12 -31 33 8 10 21 15 27 12 7 -2 16 1 21 8 5 9 2 10 -9 6
-14 -5 -16 -1 -12 23 5 26 2 30 -17 29 -13 -1 -33 1 -45 4 -13 3 -22 3 -22 -1
3 -20 -3 -22 -18 -6 -27 26 -43 63 -36 82 3 9 3 14 -2 10 -11 -10 -56 89 -49
107 4 8 10 12 16 9 5 -4 5 -10 -1 -18 -7 -9 -5 -17 9 -29 12 -10 22 -12 25 -6
4 5 14 7 24 4 9 -3 26 2 37 10 19 16 19 16 -3 10 -17 -5 -21 -2 -18 12 2 10 4
21 4 26 1 4 5 7 11 7 5 0 7 -7 4 -15z m300 -147 c-3 -5 2 -8 12 -6 13 2 18 -2
16 -14 -2 -11 3 -18 13 -18 8 0 15 4 15 10 0 16 30 -1 31 -19 1 -14 2 -14 6 2
5 19 19 22 29 6 3 -6 17 -9 30 -6 14 2 27 0 30 -4 3 -5 0 -9 -7 -9 -8 0 -8 -4
1 -15 10 -12 10 -21 1 -41 -6 -14 -16 -22 -21 -19 -6 3 -10 1 -10 -5 0 -7 7
-9 16 -6 13 5 15 2 11 -14 -3 -11 -2 -18 2 -16 4 3 12 2 18 -2 7 -5 6 -11 -3
-20 -11 -10 -14 -10 -14 0 0 7 -7 2 -16 -10 -14 -21 -52 -33 -39 -12 3 6 1 10
-4 10 -6 0 -11 -7 -11 -15 0 -8 7 -15 15 -15 8 0 15 -5 15 -11 0 -6 -7 -8 -16
-5 -8 3 -12 2 -9 -4 3 -6 1 -10 -6 -10 -9 0 -10 -3 -3 -10 14 -14 66 -15 90
-2 12 6 24 8 28 5 3 -3 6 1 6 10 0 10 -6 17 -12 18 -10 0 -10 2 0 6 6 2 12 11
12 19 0 22 18 17 25 -7 6 -17 13 -20 36 -15 22 4 29 2 29 -10 0 -9 6 -14 13
-11 10 4 13 -9 11 -52 -1 -31 -3 -56 -4 -56 -1 0 -3 -10 -6 -23 -2 -13 0 -21
5 -18 5 3 9 -13 9 -37 0 -23 -3 -35 -7 -27 -8 20 -35 26 -28 6 3 -8 1 -17 -6
-20 -12 -5 -9 -8 48 -50 19 -13 18 -14 -9 -9 -26 5 -27 4 -15 -15 8 -13 21
-20 34 -18 11 2 14 1 7 -1 -7 -3 -9 -9 -6 -15 4 -6 3 -8 -3 -5 -13 8 -110 -15
-150 -37 -18 -9 -33 -12 -33 -7 0 5 4 11 9 13 4 2 5 12 0 23 -7 19 -8 19 -8
-2 -1 -13 -5 -23 -11 -23 -5 0 -8 -6 -6 -12 1 -7 1 -10 -1 -5 -3 4 -11 7 -19
7 -9 0 -11 6 -7 17 6 15 5 16 -9 3 -9 -8 -14 -18 -12 -21 2 -3 -8 -11 -21 -17
-21 -10 -25 -9 -25 4 0 12 -2 13 -14 2 -8 -7 -10 -14 -5 -16 5 -2 9 -11 9 -20
0 -13 -2 -14 -9 -4 -4 8 -12 13 -17 13 -5 -1 -9 4 -9 11 0 6 -6 13 -13 16 -7
2 -10 -2 -7 -10 3 -8 1 -26 -4 -40 -8 -22 -7 -27 10 -31 20 -5 26 7 9 18 -5 3
-10 12 -10 18 0 7 6 4 14 -5 7 -10 15 -15 18 -12 3 2 8 -2 12 -11 3 -9 2 -13
-3 -10 -6 3 -14 -3 -20 -12 -6 -10 -11 -12 -11 -5 0 6 -9 12 -20 12 -17 0 -19
4 -14 25 11 45 9 59 -8 63 -10 2 -18 -2 -18 -8 0 -6 5 -8 10 -5 6 3 10 1 10
-4 0 -6 -5 -11 -11 -11 -7 0 -9 -11 -6 -29 4 -19 1 -33 -8 -41 -8 -7 -15 -23
-15 -36 0 -17 -6 -24 -17 -23 -11 0 -13 3 -5 6 14 5 17 33 3 33 -5 0 -13 -9
-16 -20 -3 -11 -11 -20 -16 -20 -5 0 -9 -5 -9 -12 0 -6 3 -8 7 -5 3 4 15 -1
26 -10 11 -10 18 -13 14 -7 -3 6 3 18 14 27 23 20 25 10 3 -21 -14 -21 -62
-33 -49 -12 3 6 -1 10 -10 10 -8 0 -20 12 -26 26 -5 15 -12 24 -16 20 -4 -3 4
-20 17 -38 16 -22 18 -30 7 -25 -11 4 -14 0 -12 -20 2 -20 -1 -24 -16 -20 -19
5 -44 -15 -32 -26 3 -4 1 -7 -6 -7 -8 0 -11 8 -8 20 3 12 0 20 -8 20 -32 0
-24 50 13 73 7 5 9 13 6 19 -5 7 -2 8 6 3 10 -6 12 -4 7 8 -7 20 14 23 44 7
14 -8 19 -7 19 1 0 7 6 17 14 23 8 6 17 22 20 36 5 23 4 23 -6 -2 -7 -16 -17
-28 -24 -28 -7 0 -14 -5 -16 -11 -5 -15 -35 -1 -35 16 0 8 7 15 14 15 9 0 11
-5 7 -12 -5 -8 0 -7 11 2 17 14 17 15 -9 20 l-28 5 23 28 c14 19 18 31 11 36
-6 4 -7 12 -3 20 5 7 5 28 1 47 -7 32 3 48 13 22 3 -8 6 -6 6 5 1 9 -6 17 -16
17 -9 0 -13 3 -10 7 4 3 2 11 -3 18 -5 6 -11 31 -14 54 -2 24 -9 47 -16 51 -7
4 -10 15 -7 23 3 8 1 20 -4 26 -5 6 -6 9 -3 6 4 -3 13 0 21 6 7 6 13 8 13 4 0
-4 7 -2 16 5 12 11 18 11 31 -2 14 -15 12 -16 -20 -14 -23 1 -33 -3 -30 -11 3
-6 13 -10 23 -8 15 3 17 -3 16 -43 -1 -42 2 -47 22 -50 17 -3 22 2 22 17 0 12
-4 21 -10 21 -5 0 -7 -7 -4 -15 4 -8 1 -15 -5 -15 -6 0 -11 12 -11 26 0 17 4
24 13 21 16 -6 10 64 -7 76 -8 5 -7 10 4 17 8 5 16 14 16 20 1 5 2 15 3 21 0
7 13 9 31 7 24 -4 30 -1 25 10 -4 12 -3 12 9 3 8 -7 20 -11 28 -10 20 3 49
-12 42 -22 -3 -5 0 -9 5 -9 6 0 11 7 11 15 0 16 -39 36 -52 28 -5 -2 -8 1 -8
6 0 6 -8 11 -17 12 -11 0 -13 3 -5 6 6 2 12 9 12 14 0 6 -8 6 -19 -1 -11 -5
-23 -10 -28 -10 -4 1 4 8 20 16 24 13 26 17 16 37 -15 29 -24 37 -16 15 4 -10
2 -18 -3 -18 -6 0 -10 5 -10 11 0 8 -4 8 -13 1 -8 -7 -18 -7 -27 -2 -9 6 -10
10 -3 10 6 0 9 9 6 20 -4 16 -2 19 11 14 9 -3 16 -1 16 6 0 7 -13 10 -32 8
-19 -2 -32 -8 -31 -15 2 -7 -6 -10 -17 -8 -12 2 -18 0 -15 -6 4 -5 16 -9 28
-9 18 0 19 -2 7 -10 -10 -6 -20 -4 -32 7 -23 21 -23 33 1 33 22 0 44 23 33 35
-4 4 2 3 13 -3 23 -12 43 4 39 31 -1 10 2 14 8 10 7 -4 9 2 6 15 -4 12 -2 20
3 16 5 -3 9 -3 9 0 0 2 3 13 7 23 6 16 5 17 -13 3 -17 -14 -18 -14 -6 1 13 18
57 14 46 -3z"/>
<path d="M3947 3194 c-3 -4 -2 -16 4 -27 6 -10 7 -17 2 -14 -5 3 -15 -4 -23
-16 -12 -20 -12 -21 3 -9 13 11 15 10 10 -9 -5 -18 -3 -21 12 -16 14 6 16 4 9
-10 -4 -10 -8 -28 -8 -40 -1 -12 -3 -21 -6 -21 -28 2 -39 -4 -33 -18 3 -9 13
-14 24 -11 11 3 19 1 19 -4 0 -5 -4 -9 -9 -9 -5 0 -11 -9 -14 -21 -4 -13 -10
-18 -18 -13 -7 4 -10 3 -6 -2 3 -6 2 -16 -4 -24 -7 -12 -9 -10 -9 7 0 17 -4
20 -22 15 -19 -5 -20 -7 -5 -10 9 -2 17 -8 17 -14 0 -6 8 -17 18 -24 15 -12
13 -13 -18 -8 -25 4 -31 3 -20 -4 8 -6 18 -8 23 -5 5 3 7 -3 5 -13 -2 -12 -13
-20 -31 -22 -30 -4 -38 14 -9 21 9 3 5 4 -10 4 -22 -1 -28 -6 -28 -23 0 -12
-7 -27 -15 -34 -12 -10 -13 -6 -10 27 3 33 2 32 -7 -10 -8 -33 -16 -46 -25
-43 -7 3 -13 0 -13 -7 0 -7 -3 -8 -8 -2 -4 6 -17 11 -29 13 -17 2 -21 -1 -17
-12 3 -9 1 -16 -5 -16 -6 0 -11 11 -11 25 0 14 -4 25 -10 25 -5 0 -10 8 -11
18 0 14 -2 14 -8 -3 -5 -11 -4 -22 1 -24 5 -2 13 -14 18 -27 10 -25 39 -33 41
-11 0 6 7 -4 14 -23 7 -19 14 -27 14 -17 1 9 6 17 11 17 6 0 10 8 10 18 1 16
1 16 14 -1 8 -10 20 -15 30 -11 9 3 16 2 16 -4 0 -6 -6 -13 -12 -15 -8 -4 -7
-6 3 -6 18 -1 32 13 42 42 4 11 3 16 -3 12 -15 -9 -12 5 5 22 8 8 13 19 10 24
-4 5 6 9 20 9 14 0 24 4 21 9 -4 5 -1 11 6 13 6 2 11 20 10 41 -1 29 2 35 14
30 8 -3 13 -12 10 -19 -3 -9 1 -14 12 -14 16 -1 16 -1 0 -11 -14 -8 -15 -14
-6 -35 10 -21 9 -28 -8 -44 -10 -11 -29 -21 -41 -23 -24 -3 -44 -17 -25 -17 7
0 12 -5 12 -11 0 -5 -5 -7 -12 -3 -8 5 -9 2 -5 -10 4 -10 7 -21 7 -24 0 -4 5
0 10 8 8 13 10 12 10 -2 0 -19 10 -23 26 -10 5 4 -1 -3 -13 -15 -23 -24 -39
-31 -28 -13 3 6 1 10 -4 10 -6 0 -11 -7 -11 -15 0 -9 -7 -18 -15 -21 -16 -6
-21 -44 -7 -44 5 0 15 -11 22 -25 7 -14 15 -23 17 -21 3 2 0 13 -6 23 -8 15
-7 20 4 20 8 0 17 -7 20 -15 4 -11 9 -12 19 -3 17 15 20 -9 12 -122 -4 -58 7
-66 19 -16 4 16 2 30 -4 33 -16 10 -14 26 3 26 15 0 26 -21 26 -51 0 -10 4
-19 10 -19 6 0 9 142 10 376 0 248 -4 373 -10 369 -6 -4 -7 -12 -3 -18 3 -7
-3 -4 -14 6 -11 9 -22 14 -26 11z"/>
<path d="M3991 2240 c-1 -20 -3 -22 -11 -10 -8 12 -10 10 -11 -10 -1 -14 -2
-31 -2 -37 1 -7 -4 -10 -9 -7 -5 3 -7 11 -5 18 3 6 -2 21 -9 31 -14 19 -14 19
-12 -5 2 -19 -1 -24 -15 -22 -15 3 -17 0 -9 -15 7 -11 7 -24 1 -35 -10 -19 -1
-71 11 -63 4 3 11 -2 14 -11 10 -25 7 -32 -11 -37 -14 -4 -13 -5 4 -6 17 -1
24 -11 33 -48 6 -27 12 -54 12 -60 2 -19 16 -16 22 5 5 17 4 28 -9 70 -6 18
-10 20 -16 10 -7 -10 -9 -9 -9 3 0 9 9 19 20 22 26 7 26 27 -1 27 -11 0 -17
-4 -14 -10 3 -5 1 -10 -4 -10 -13 0 -14 14 -5 59 4 17 11 31 16 31 5 0 7 -13
3 -30 -4 -20 -3 -30 5 -30 6 0 8 5 5 10 -3 6 -2 10 2 10 5 0 10 25 11 55 1 41
-2 54 -11 48 -8 -4 -7 -1 1 10 8 9 12 26 9 39 -4 22 -4 22 -6 -2z"/>
<path d="M600 1039 c0 -27 222 -262 296 -314 15 -11 37 -28 47 -39 11 -10 60
-47 110 -82 49 -35 86 -64 82 -64 -4 0 -2 -7 5 -15 7 -8 8 -15 2 -15 -5 0 -12
-11 -14 -25 -4 -17 -1 -25 8 -25 8 0 11 -6 7 -15 -3 -9 -2 -15 3 -14 25 4 54
-2 49 -11 -3 -5 -2 -10 3 -10 6 0 13 7 16 16 3 9 11 12 18 8 8 -5 9 -2 5 10
-5 14 -3 17 8 12 8 -3 15 -1 15 3 0 5 -6 12 -12 14 -8 4 -7 6 4 6 9 1 23 -6
32 -14 8 -8 21 -15 30 -15 8 0 18 -4 21 -10 3 -5 24 -14 46 -20 22 -6 37 -15
34 -20 -3 -4 4 -6 15 -3 11 3 20 1 20 -4 0 -5 47 -20 105 -33 58 -14 105 -29
105 -33 0 -5 5 -5 12 -1 8 5 9 0 6 -14 -4 -12 -2 -25 3 -28 5 -3 9 2 9 10 0
26 17 18 24 -10 4 -15 2 -32 -3 -37 -6 -6 -11 -19 -11 -29 0 -11 -7 -18 -20
-18 -26 0 -25 8 2 29 19 16 19 18 4 24 -11 4 -19 1 -23 -11 -6 -14 -8 -14 -13
6 -6 28 -25 30 -23 2 2 -38 3 -41 13 -35 6 3 10 -1 10 -10 0 -9 -4 -14 -9 -10
-5 3 -12 -3 -15 -13 -8 -23 -50 -22 -54 1 -4 18 -19 22 -39 9 -9 -6 -7 -12 7
-25 11 -9 20 -22 20 -29 0 -7 -5 -5 -11 5 -6 9 -15 14 -21 11 -6 -4 -8 -2 -4
4 3 6 2 13 -4 17 -13 8 -13 25 0 25 6 0 21 10 33 21 l22 21 -25 -7 c-17 -4
-21 -3 -11 3 9 7 10 12 2 16 -6 4 -16 -4 -22 -17 -14 -30 -44 -38 -84 -21 -28
12 -29 13 -6 14 36 0 18 11 -25 16 -21 2 -42 8 -48 15 -8 8 -5 10 12 4 25 -7
29 6 7 29 -19 18 -19 27 -1 20 8 -3 17 0 21 6 3 6 3 10 -2 9 -20 -4 -32 2 -36
18 -5 18 -9 -10 -11 -67 -1 -14 -4 -30 -8 -35 -4 -6 6 -10 24 -10 17 0 33 -5
35 -12 4 -12 -29 -47 -47 -49 -6 -1 -16 -2 -22 -3 -9 -1 -8 -4 2 -11 13 -8 13
-10 -2 -10 -9 0 -19 6 -21 13 -3 7 -6 5 -6 -5 -1 -10 6 -18 15 -18 9 0 14 -5
12 -11 -6 -18 -22 -13 -33 10 -5 11 -13 21 -18 21 -4 0 -5 -6 -1 -12 4 -7 -3
-4 -17 7 -18 15 -20 16 -10 3 12 -16 11 -18 -3 -18 -10 0 -16 8 -16 21 0 17 5
20 24 17 14 -3 31 -1 38 3 9 6 7 9 -8 9 -23 0 -40 25 -24 35 13 8 32 -4 25
-16 -4 -5 -2 -9 3 -9 21 0 20 28 -1 34 -12 3 -18 8 -15 12 10 9 -15 32 -29 27
-7 -3 -13 0 -13 5 0 6 8 13 18 15 13 4 12 5 -5 6 -12 0 -27 9 -32 19 -8 13
-10 14 -11 2 0 -12 -2 -12 -9 -2 -6 11 -10 10 -15 -4 -4 -10 -1 -21 6 -26 9
-5 8 -8 -6 -8 -17 0 -17 -2 -4 -22 20 -30 38 -34 38 -8 0 12 4 18 11 15 6 -4
8 -9 6 -12 -3 -2 1 -16 9 -31 12 -23 11 -28 -2 -35 -10 -6 -20 -5 -27 2 -8 8
-6 11 9 12 18 0 18 1 -1 8 -29 12 -39 -10 -15 -31 12 -10 16 -19 10 -23 -5 -3
-10 -2 -10 3 0 6 -9 8 -20 5 -23 -6 -25 -14 -8 -31 9 -9 9 -15 -1 -24 -11 -11
-13 -10 -8 3 5 16 -30 46 -41 35 -3 -3 1 -6 9 -6 8 0 1 -7 -15 -15 -35 -19
-52 -20 -38 -2 9 10 4 13 -19 12 -19 0 -28 -4 -25 -12 3 -7 1 -15 -4 -18 -6
-4 -10 1 -10 9 0 9 -4 16 -9 16 -5 0 -8 -7 -7 -16 0 -9 -5 -19 -13 -22 -9 -3
-11 0 -6 8 5 9 2 10 -14 5 -20 -6 -21 -5 -10 13 7 12 15 20 18 20 26 -2 37 5
37 25 0 12 -4 25 -10 29 -5 4 -2 13 7 23 10 9 17 11 17 5 0 -6 4 -9 9 -6 5 3
12 -10 15 -29 4 -22 13 -35 22 -35 14 0 14 2 0 16 -16 16 -19 74 -4 74 4 0 8
-4 8 -10 0 -14 19 -12 35 4 11 10 11 16 2 27 -10 11 -9 11 4 1 9 -6 19 -9 23
-5 4 4 4 -1 0 -11 -5 -14 -4 -17 4 -12 17 10 15 36 -3 36 -8 0 -15 4 -15 10 0
5 7 7 15 4 9 -4 15 0 15 9 0 8 -7 18 -16 21 -8 3 -12 10 -9 16 3 5 1 10 -5 10
-6 0 -8 5 -5 10 3 6 0 10 -7 10 -8 0 -14 -11 -14 -25 0 -14 4 -25 8 -25 4 0 8
-5 8 -10 0 -7 -6 -7 -20 0 -10 6 -17 16 -14 23 7 19 -39 16 -49 -3 -4 -9 -5
-3 -2 13 5 24 2 27 -20 27 -15 0 -24 4 -21 8 2 4 1 14 -4 21 -6 10 -9 8 -15
-8 -3 -12 -11 -19 -16 -16 -5 3 -6 -1 -3 -9 7 -19 -12 -22 -19 -3 -4 9 -8 8
-16 -3 -6 -8 -10 -19 -10 -25 0 -5 3 -4 6 3 2 6 9 12 15 12 6 0 8 -6 6 -12 -3
-7 4 -22 14 -33 18 -19 19 -19 12 -1 -5 14 -4 17 5 12 9 -6 10 -1 5 18 -4 16
-2 26 5 26 6 0 11 -9 11 -21 0 -12 4 -18 11 -13 8 5 9 2 1 -12 -8 -15 -7 -21
8 -29 14 -7 17 -14 10 -25 -8 -13 -10 -12 -10 3 0 23 -4 22 -34 -8 -18 -18
-25 -34 -22 -55 2 -16 0 -27 -5 -25 -4 3 -14 -4 -22 -16 -9 -13 -17 -16 -22
-10 -3 6 -2 11 4 11 5 0 4 12 -5 28 -7 15 -14 33 -14 41 0 11 3 11 17 0 15
-13 15 -12 5 7 -12 23 -36 37 -46 27 -10 -10 -7 -25 4 -18 6 3 10 -1 10 -9 0
-9 -5 -16 -11 -16 -5 0 -7 -4 -4 -10 3 -5 2 -10 -3 -10 -5 0 -12 13 -14 30 -4
27 12 46 35 42 4 -1 7 2 7 8 0 13 -17 13 -25 1 -7 -13 -65 -11 -65 2 0 5 9 7
20 4 11 -3 23 0 27 5 3 6 1 8 -5 4 -6 -3 -13 3 -17 14 -4 11 -11 18 -16 15 -5
-4 -9 -1 -9 4 0 6 5 11 12 11 6 0 9 2 6 5 -3 3 -12 3 -21 0 -12 -5 -14 -19
-11 -67 3 -58 2 -60 -12 -40 -9 14 -13 31 -8 45 l6 22 -20 -23 c-20 -23 -20
-23 -27 -3 -3 12 -13 21 -21 21 -8 0 -12 -4 -9 -10 3 -5 2 -10 -3 -10 -6 0
-12 7 -16 15 -3 8 -13 15 -23 14 -17 0 -17 -1 -1 -7 12 -5 14 -12 9 -21 -5 -8
-14 -10 -21 -6 -9 5 -11 4 -6 -4 13 -20 25 -72 16 -66 -4 3 -10 -1 -12 -7 -3
-7 -5 1 -5 19 0 38 -21 69 -37 53 -14 -14 -39 -13 -30 3 5 9 4 9 -6 0 -7 -6
-10 -19 -6 -29 5 -12 10 -14 17 -7 11 11 49 6 49 -7 0 -4 -7 -13 -15 -20 -9
-8 -15 -8 -15 -2 0 6 6 13 13 15 7 3 5 6 -5 6 -10 1 -18 -3 -18 -7 0 -4 -10
-9 -22 -9 -13 -1 -24 -6 -26 -12 -2 -5 -14 -3 -30 5 -20 10 -28 11 -34 1 -5
-7 -8 -3 -8 13 0 20 -2 22 -10 10 -7 -10 -10 -11 -11 -2 -3 27 -4 31 -11 37
-4 4 -4 13 -1 20 3 9 -2 13 -15 12 -10 0 -19 -8 -18 -15 1 -8 -4 -17 -10 -19
-7 -2 -11 4 -10 13 0 9 -5 19 -13 22 -9 3 -11 0 -6 -8 10 -17 -14 -60 -31 -53
-8 3 -14 0 -14 -6 0 -6 -5 -11 -11 -11 -8 0 -7 5 1 15 7 9 10 19 6 22 -4 4
-11 1 -15 -6 -7 -11 -10 -11 -14 0 -4 12 -7 11 -16 -1 -9 -13 -11 -13 -11 1 0
9 9 27 21 40 l20 24 -7 -25 c-5 -21 -4 -23 7 -12 12 11 11 18 -4 44 -13 22
-15 34 -7 43 13 15 -3 30 -21 20 -6 -4 -13 2 -16 14 -3 11 -9 18 -14 16 -4 -3
-5 -13 -2 -23 5 -13 3 -14 -6 -6 -16 15 -91 -3 -91 -22 0 -8 6 -11 15 -8 8 4
15 11 15 17 0 6 6 3 13 -6 9 -13 16 -14 27 -6 13 9 12 10 -3 5 -10 -3 -15 -2
-12 4 10 15 55 8 55 -10 0 -13 1 -13 10 0 8 12 10 11 10 -7 0 -17 -4 -21 -17
-17 -17 5 -17 5 0 -9 19 -16 24 -32 6 -21 -7 4 -9 0 -5 -14 4 -11 2 -23 -4
-27 -6 -4 -8 -16 -5 -28 5 -18 4 -19 -4 -7 -9 13 -12 13 -20 1 -8 -12 -12 -12
-26 2 -9 10 -22 17 -28 16 -9 0 -8 -2 1 -6 6 -2 12 -10 12 -16 0 -8 -4 -7 -12
1 -18 18 -38 15 -38 -5 0 -15 -2 -16 -10 -3 -6 10 -6 16 0 18 6 2 10 8 10 13
0 6 -5 7 -10 4 -5 -3 -10 0 -10 9 0 8 5 16 11 18 7 2 9 13 5 26 -4 12 -12 20
-17 17 -5 -4 -9 1 -9 10 0 10 -5 14 -12 9 -10 -6 -10 -4 0 7 17 18 15 30 -3
23 -8 -4 -15 -1 -15 5 0 6 3 10 8 10 20 -3 21 3 3 22 -11 12 -24 18 -30 15 -5
-4 -12 -2 -16 4 -3 5 -1 10 4 10 6 0 11 5 11 11 0 8 -4 9 -13 0 -8 -6 -17 -7
-22 -3 -4 4 -3 -3 4 -15 6 -12 7 -24 2 -27 -5 -3 -9 -94 -10 -201 l-2 -195
562 0 c469 0 560 3 556 14 -4 10 0 12 14 9 10 -3 19 -9 19 -14 0 -6 155 -9
375 -8 334 1 375 3 375 17 0 13 3 12 14 -4 13 -17 14 -13 13 39 -2 38 -7 61
-17 67 -8 5 -11 13 -6 17 5 4 11 2 13 -5 4 -10 9 -9 24 4 10 9 19 12 19 6 0
-6 -4 -14 -10 -17 -5 -3 -9 -18 -9 -33 2 -27 2 -27 6 -2 3 13 16 34 30 46 19
16 22 24 13 29 -9 5 -11 4 -6 -3 4 -7 2 -12 -3 -12 -15 0 -14 23 2 39 8 10 8
12 0 7 -6 -3 -14 -2 -18 4 -3 5 -1 10 5 10 6 0 8 5 4 12 -5 7 -11 5 -21 -7 -7
-11 -13 -13 -13 -6 0 7 -4 9 -10 6 -5 -3 -10 3 -10 14 0 12 -4 21 -9 21 -5 0
-11 11 -13 25 -4 20 -1 25 16 25 15 0 17 -3 8 -9 -11 -7 -10 -9 3 -14 9 -4 18
-1 21 7 4 11 32 14 117 15 98 1 153 8 352 46 27 5 28 4 7 -5 -13 -6 -20 -15
-16 -21 11 -19 -18 -29 -32 -11 -10 14 -13 11 -19 -17 -4 -21 -3 -37 5 -44 8
-9 9 -7 4 7 -6 16 -4 18 9 13 10 -4 17 -1 17 6 0 9 3 8 9 -1 7 -11 10 -10 15
3 3 9 6 26 7 38 0 21 1 21 8 2 5 -11 7 -23 4 -27 -2 -5 1 -8 6 -8 11 0 12 5
15 53 1 17 11 25 51 38 33 11 54 13 62 7 9 -7 15 -5 19 7 10 24 24 -1 23 -40
0 -16 -3 -24 -6 -17 -2 7 -13 17 -24 22 -15 8 -19 7 -19 -5 0 -8 7 -15 16 -15
8 0 12 -5 9 -11 -4 -6 -14 -8 -22 -5 -8 3 -12 2 -9 -2 3 -5 -4 -15 -15 -22
-25 -19 -24 -30 4 -30 16 0 18 -3 8 -9 -7 -5 -22 -6 -34 -3 -14 3 -18 1 -13
-6 4 -7 2 -12 -3 -12 -6 0 -11 6 -12 13 0 6 -4 3 -9 -8 -12 -27 -12 -43 0 -25
5 8 10 10 10 4 0 -6 -10 -18 -21 -26 -19 -12 -20 -17 -10 -36 7 -13 8 -22 2
-22 -11 0 -25 36 -17 48 2 4 1 14 -5 22 -7 12 -9 12 -9 1 0 -10 -3 -11 -13 -2
-16 12 -27 5 -27 -18 0 -12 2 -13 9 -3 6 10 11 10 21 -3 8 -10 10 -19 4 -23
-5 -4 -15 -17 -22 -30 -11 -20 -10 -22 8 -22 11 0 20 -4 20 -8 0 -7 30 -8 67
-4 6 1 14 19 16 39 l4 38 1 -41 c2 -37 -1 -43 -23 -48 -20 -5 -25 -13 -25 -39
l-1 -32 -15 30 -14 30 5 -30 c3 -24 3 -26 -4 -10 -5 11 -12 28 -15 38 -3 9
-11 17 -18 16 -10 0 -10 -2 0 -6 6 -2 12 -10 12 -17 0 -17 -28 -16 -34 1 -9
23 -26 4 -26 -28 0 -21 5 -29 18 -29 14 0 15 2 2 10 -8 5 -12 12 -8 15 3 3 13
-1 21 -9 20 -20 214 -22 198 -2 -7 8 -4 15 9 23 15 10 19 8 24 -13 6 -24 9
-24 88 -22 70 2 84 5 105 26 13 12 28 20 35 16 7 -5 8 -3 3 6 -4 7 -2 16 6 22
11 7 9 8 -5 4 -13 -5 -17 -2 -13 8 9 23 -16 64 -40 69 -13 2 -23 0 -23 -5 0
-5 -7 -3 -15 6 -8 8 -15 20 -15 27 0 7 -3 10 -6 6 -4 -3 -3 -14 1 -24 13 -29
14 -43 4 -43 -5 0 -9 5 -9 12 0 6 -2 9 -5 6 -9 -9 6 -38 20 -38 8 0 16 8 18
18 4 15 5 14 6 -2 1 -20 1 -20 16 0 14 18 15 17 4 -8 -7 -16 -17 -24 -25 -21
-8 3 -20 0 -27 -5 -8 -7 -18 -7 -27 -2 -10 6 -11 10 -3 10 7 0 10 7 7 15 -4 8
-10 12 -15 9 -5 -3 -10 6 -10 20 -1 14 -3 31 -4 36 -1 6 -3 18 -4 28 -2 15 -3
14 -10 -3 -5 -11 -7 -23 -4 -28 2 -4 -3 -14 -11 -22 -14 -14 -16 -13 -22 10
-4 16 -12 24 -20 21 -20 -8 -24 7 -8 29 8 10 14 15 14 9 0 -5 5 -2 10 6 10 17
41 20 52 5 4 -5 10 -6 15 -2 4 5 2 11 -4 15 -6 4 -13 16 -16 27 -4 18 -5 18
-6 -2 -1 -24 -21 -33 -21 -10 0 9 -3 8 -9 -2 -16 -25 -29 -1 -29 52 0 29 -3
63 -6 75 -5 16 -4 22 6 20 7 -2 12 3 10 10 -1 8 2 11 8 7 5 -3 13 1 16 9 3 9
11 16 18 16 6 0 55 25 109 55 53 30 102 55 107 55 5 0 21 12 36 27 26 25 27
26 40 8 14 -18 14 -18 14 1 0 24 35 64 55 64 8 0 15 4 15 9 0 4 33 35 73 68
110 92 297 289 297 314 0 22 -25 4 -107 -77 -103 -102 -239 -214 -259 -214 -8
0 -14 -4 -14 -9 0 -9 -50 -42 -140 -94 -143 -83 -278 -137 -291 -116 -4 7 -5
17 -3 21 6 10 -10 11 -19 1 -4 -3 -2 -13 5 -20 19 -24 -22 -40 -86 -33 -10 1
-16 -2 -13 -7 3 -5 -3 -9 -13 -10 -14 -1 -17 3 -13 15 4 13 3 13 -9 -2 -9 -11
-22 -17 -31 -13 -9 3 -17 2 -19 -2 -2 -5 -24 -11 -50 -14 -50 -6 -63 4 -46 36
5 10 7 21 5 24 -3 2 -8 -5 -12 -16 -3 -12 -11 -21 -16 -21 -5 0 -9 -5 -9 -11
0 -5 5 -7 10 -4 6 3 10 1 10 -5 0 -12 -53 -2 -58 12 -2 4 -8 8 -13 8 -6 0 -7
-4 -4 -10 3 -6 1 -10 -4 -10 -6 0 -11 4 -11 10 0 5 -7 7 -15 4 -21 -8 -120 40
-139 68 -9 13 -21 40 -27 60 -11 42 -39 43 -39 3 0 -24 -15 -42 -23 -28 -2 5
-2 2 0 -6 5 -19 -47 -72 -61 -63 -22 13 -34 9 -45 -14 -6 -14 -20 -24 -33 -25
-13 -1 -43 -3 -68 -5 -50 -4 -63 7 -49 43 7 20 0 30 -15 21 -2 -2 -13 5 -24
15 -15 14 -22 15 -28 6 -4 -7 -3 -10 4 -5 6 3 13 2 17 -4 3 -5 1 -10 -5 -10
-6 0 -8 -5 -5 -10 4 -6 10 -8 15 -5 5 3 12 0 16 -6 4 -8 3 -9 -4 -5 -7 4 -12
3 -12 -3 0 -5 5 -11 12 -13 8 -3 8 -9 -1 -24 -12 -19 -12 -19 -7 1 6 20 6 20
-9 1 -8 -11 -15 -15 -15 -8 0 6 -7 9 -17 5 -11 -4 -14 -3 -9 5 4 7 2 12 -3 12
-6 0 -11 -6 -12 -12 0 -7 -4 -4 -9 7 -5 11 -9 15 -9 9 -1 -16 -58 -15 -65 2
-3 8 -10 14 -16 14 -6 0 -9 -4 -6 -9 4 -5 -3 -7 -14 -4 -11 3 -20 10 -20 17 0
7 -3 7 -8 -1 -6 -10 -16 -10 -45 -1 -20 6 -34 14 -32 19 3 4 -2 10 -11 13 -8
3 -12 2 -9 -4 3 -6 1 -10 -4 -10 -6 0 -11 5 -11 10 0 6 -11 10 -25 10 -14 0
-25 5 -25 11 0 5 -4 8 -9 5 -5 -3 -39 10 -77 30 -102 52 -115 60 -106 69 4 5
1 5 -6 1 -7 -5 -35 8 -68 31 -31 21 -65 43 -75 49 -10 6 -40 28 -66 50 -25 21
-56 45 -67 53 -12 8 -64 57 -116 108 -92 91 -110 104 -110 82z"/>
<path d="M3942 735 c0 -24 -5 -52 -11 -63 -6 -12 -11 -48 -11 -81 0 -33 -4
-63 -10 -66 -5 -3 -10 1 -10 9 0 9 -4 16 -10 16 -5 0 -10 -13 -10 -30 0 -36
-35 -98 -44 -78 -3 7 -3 3 -1 -8 6 -21 -17 -40 -35 -29 -8 5 -24 -44 -17 -51
2 -2 16 7 30 20 19 18 27 21 27 11 0 -17 16 -20 25 -5 5 8 11 8 19 1 7 -6 17
-7 21 -3 5 4 5 2 2 -5 -4 -6 -16 -9 -26 -6 -10 3 -22 0 -26 -6 -4 -7 -1 -10 7
-9 7 2 12 -3 10 -9 -1 -7 3 -13 10 -13 7 0 6 -6 -4 -17 -9 -10 -18 -25 -21
-33 -3 -9 -6 -6 -6 9 -1 30 -10 23 -17 -13 -2 -15 0 -26 7 -26 6 0 9 -7 5 -15
-3 -8 0 -15 7 -15 7 0 4 -5 -5 -11 -10 -5 -18 -15 -18 -20 0 -6 5 -7 10 -4 6
3 10 4 10 0 0 -3 -11 -10 -24 -15 -14 -5 -26 -19 -29 -32 -3 -18 -5 -16 -6 8
-1 39 -19 55 -52 47 -25 -6 -39 -20 -39 -38 0 -5 5 -3 11 5 7 11 8 6 3 -20 -3
-19 -10 -36 -15 -38 -5 -2 -9 -10 -9 -19 0 -8 -7 -21 -15 -29 -8 -9 -15 -12
-15 -8 0 3 -8 0 -17 -7 -11 -10 -14 -10 -9 -1 4 7 1 12 -8 12 -10 0 -13 -6 -9
-17 5 -14 3 -15 -7 -6 -7 6 -18 9 -25 6 -7 -2 -15 4 -18 14 -4 16 -5 15 -6 -3
0 -11 -5 -24 -10 -30 -6 -5 28 -10 94 -11 91 -3 104 -1 108 15 4 16 5 16 6 0
1 -16 14 -18 121 -18 l120 0 0 345 c-1 267 -4 344 -13 339 -9 -5 -9 -3 1 7 26
28 12 67 -30 82 -14 5 -16 -1 -16 -38z"/>
<path d="M2078 218 c-3 -7 -1 -31 3 -53 4 -22 5 -43 2 -48 -2 -4 1 -15 9 -24
10 -13 10 -17 0 -20 -6 -3 -9 -10 -6 -15 4 -7 2 -8 -4 -4 -6 4 -9 14 -6 24 5
14 3 14 -10 -2 -20 -25 -21 -14 -1 24 9 18 11 31 5 35 -6 3 -10 -2 -11 -12 0
-16 -1 -16 -10 2 -8 17 -9 16 -5 -8 4 -34 -11 -22 -17 13 -2 14 -3 6 -1 -17 2
-23 -1 -45 -6 -48 -6 -3 -10 -2 -10 3 0 5 -6 9 -14 9 -17 0 -9 -37 10 -44 8
-3 14 -11 14 -18 0 -10 19 -14 78 -13 86 0 98 4 82 23 -7 9 -8 15 -1 19 6 4
17 -6 25 -21 13 -23 15 -24 13 -7 -2 12 -11 33 -21 48 -9 15 -15 33 -12 39 2
7 5 5 5 -4 1 -12 8 -15 26 -11 20 3 25 0 25 -17 0 -11 -4 -21 -9 -21 -4 0 -6
-11 -3 -25 2 -14 10 -25 17 -25 15 0 29 35 21 49 -4 5 0 12 6 14 8 3 6 6 -4 6
-10 1 -18 5 -18 10 0 11 19 9 38 -3 11 -7 11 -4 1 12 -7 12 -9 25 -5 29 5 4
11 2 13 -4 3 -7 12 -13 21 -13 15 0 15 2 2 10 -8 5 -11 10 -5 10 5 0 4 5 -3
12 -7 7 -12 16 -12 21 0 5 9 -1 21 -14 l21 -24 -5 23 c-3 12 -1 20 4 16 15 -9
10 20 -6 42 -15 18 -15 18 -8 0 4 -13 3 -17 -5 -12 -7 4 -12 2 -12 -6 -1 -8
-5 -7 -14 5 -13 16 -14 16 -21 -10 -5 -21 -8 -24 -16 -12 -6 10 -9 11 -9 1 0
-7 -4 -10 -10 -7 -6 4 -7 -1 -3 -12 3 -10 3 -15 -2 -11 -4 4 -15 2 -23 -5 -12
-9 -16 -9 -19 1 -7 19 -23 14 -23 -7 0 -24 -16 -36 -26 -20 -7 13 -34 -40 -27
-53 7 -14 23 -8 17 6 -3 7 1 16 9 19 10 4 13 -2 12 -21 -1 -20 -6 -26 -20 -24
-10 2 -22 -2 -26 -10 -7 -11 -9 -11 -9 1 0 10 -3 11 -14 2 -11 -9 -15 -8 -20
5 -5 12 -2 15 9 10 12 -4 20 4 31 30 8 19 12 39 9 44 -6 10 7 14 33 11 6 -1
12 5 12 13 0 8 6 16 12 18 10 4 10 10 0 29 -11 22 -12 22 -6 2 4 -17 1 -23
-11 -23 -8 0 -18 -7 -21 -15 -4 -8 -13 -15 -21 -15 -8 0 -11 5 -7 12 5 7 3 8
-5 3 -10 -5 -12 3 -10 33 3 41 -5 65 -13 40z"/>
</g>
</svg>
